<?xml version="1.0" ?>
	<svg xmlns:xlink="http://www.w3.org/1999/xlink" 
			xmlns="http://www.w3.org/2000/svg"
			width="1000px" 
			height="1000px" ><g><rect id="page" x="0" y="0" width="595.276" height="779.528"
  style="stroke:black;fill:rgb(91,92,205);fill-opacity:0.1;" /><rect id="text" x="51.7323" y="54.7457" width="488.2757" height="660.6421"
  style="stroke:black;fill:rgb(227,101,181);fill-opacity:0.1;" /><rect id="0" x="51.7323" y="54.7621" width="181.223" height="13.0942"
  style="stroke:black;fill:rgb(103,24,202);fill-opacity:0.1;" /><rect id="1" x="530.576" y="54.7457" width="8.5728" height="13.0942"
  style="stroke:black;fill:rgb(124,10,103);fill-opacity:0.1;" /><rect id="2" x="52.4409" y="519.03" width="236.498" height="196.3578"
  style="stroke:black;fill:rgb(226,212,164);fill-opacity:0.1;" /><rect id="3" x="303.537" y="519.03" width="236.465" height="46.4338"
  style="stroke:black;fill:rgb(233,120,88);fill-opacity:0.1;" /><rect id="4" x="303.537" y="574.592" width="43.82" height="13.3198"
  style="stroke:black;fill:rgb(113,113,40);fill-opacity:0.1;" /><rect id="5" x="303.537" y="591.743" width="236.471" height="123.2308"
  style="stroke:black;fill:rgb(32,24,26);fill-opacity:0.1;" /><rect id="6" x="52.4409" y="474.802" width="487.55" height="21.4088"
  style="stroke:black;fill:rgb(241,147,98);fill-opacity:0.1;" /><circle cx="142.3438" cy="61.3092" r="5" /><line x1="142.3438" y1="61.3092" x2="534.8624" y2="61.2928" stroke="black" /><circle cx="534.8624" cy="61.2928" r="5" /><circle cx="142.3438" cy="61.3092" r="5" /><line x1="142.3438" y1="61.3092" x2="296.2159" y2="485.5064" stroke="black" /><circle cx="296.2159" cy="485.5064" r="5" /><circle cx="534.8624" cy="61.2928" r="5" /><line x1="534.8624" y1="61.2928" x2="534.8624" y2="61.2928" stroke="black" /><circle cx="534.8624" cy="61.2928" r="5" /><circle cx="534.8624" cy="61.2928" r="5" /><line x1="534.8624" y1="61.2928" x2="296.2159" y2="485.5064" stroke="black" /><circle cx="296.2159" cy="485.5064" r="5" /><circle cx="170.6899" cy="617.2089" r="5" /><line x1="170.6899" y1="617.2089" x2="170.6899" y2="617.2089" stroke="black" /><circle cx="170.6899" cy="617.2089" r="5" /><circle cx="170.6899" cy="617.2089" r="5" /><line x1="170.6899" y1="617.2089" x2="325.447" y2="581.2519" stroke="black" /><circle cx="325.447" cy="581.2519" r="5" /><circle cx="170.6899" cy="617.2089" r="5" /><line x1="170.6899" y1="617.2089" x2="421.7725" y2="653.3584" stroke="black" /><circle cx="421.7725" cy="653.3584" r="5" /><circle cx="170.6899" cy="617.2089" r="5" /><line x1="170.6899" y1="617.2089" x2="296.2159" y2="485.5064" stroke="black" /><circle cx="296.2159" cy="485.5064" r="5" /><circle cx="421.7695" cy="542.2469" r="5" /><line x1="421.7695" y1="542.2469" x2="421.7695" y2="542.2469" stroke="black" /><circle cx="421.7695" cy="542.2469" r="5" /><circle cx="421.7695" cy="542.2469" r="5" /><line x1="421.7695" y1="542.2469" x2="325.447" y2="581.2519" stroke="black" /><circle cx="325.447" cy="581.2519" r="5" /><circle cx="421.7695" cy="542.2469" r="5" /><line x1="421.7695" y1="542.2469" x2="421.7725" y2="653.3584" stroke="black" /><circle cx="421.7725" cy="653.3584" r="5" /><circle cx="421.7695" cy="542.2469" r="5" /><line x1="421.7695" y1="542.2469" x2="296.2159" y2="485.5064" stroke="black" /><circle cx="296.2159" cy="485.5064" r="5" /><circle cx="325.447" cy="581.2519" r="5" /><line x1="325.447" y1="581.2519" x2="170.6899" y2="617.2089" stroke="black" /><circle cx="170.6899" cy="617.2089" r="5" /><circle cx="325.447" cy="581.2519" r="5" /><line x1="325.447" y1="581.2519" x2="421.7695" y2="542.2469" stroke="black" /><circle cx="421.7695" cy="542.2469" r="5" /><circle cx="325.447" cy="581.2519" r="5" /><line x1="325.447" y1="581.2519" x2="325.447" y2="581.2519" stroke="black" /><circle cx="325.447" cy="581.2519" r="5" /><circle cx="325.447" cy="581.2519" r="5" /><line x1="325.447" y1="581.2519" x2="421.7725" y2="653.3584" stroke="black" /><circle cx="421.7725" cy="653.3584" r="5" /><circle cx="421.7725" cy="653.3584" r="5" /><line x1="421.7725" y1="653.3584" x2="170.6899" y2="617.2089" stroke="black" /><circle cx="170.6899" cy="617.2089" r="5" /><circle cx="421.7725" cy="653.3584" r="5" /><line x1="421.7725" y1="653.3584" x2="421.7695" y2="542.2469" stroke="black" /><circle cx="421.7695" cy="542.2469" r="5" /><circle cx="421.7725" cy="653.3584" r="5" /><line x1="421.7725" y1="653.3584" x2="325.447" y2="581.2519" stroke="black" /><circle cx="325.447" cy="581.2519" r="5" /><circle cx="421.7725" cy="653.3584" r="5" /><line x1="421.7725" y1="653.3584" x2="421.7725" y2="653.3584" stroke="black" /><circle cx="421.7725" cy="653.3584" r="5" /></g></svg>