<?xml version="1.0" ?>
	<svg xmlns:xlink="http://www.w3.org/1999/xlink" 
			xmlns="http://www.w3.org/2000/svg"
			width="1000px" 
			height="1000px" ><g><rect id="page" x="0" y="0" width="603" height="796"
  style="stroke:black;fill:rgb(102,52,81);fill-opacity:0.1;" /><rect id="text" x="49.189" y="56.2224" width="494.058" height="507.4696"
  style="stroke:black;fill:rgb(233,62,70);fill-opacity:0.1;" /><rect id="0" x="49.189" y="56.2224" width="12.996" height="10.887"
  style="stroke:black;fill:rgb(45,194,36);fill-opacity:0.1;" /><rect id="1" x="486.562" y="56.2224" width="54.7656" height="10.887"
  style="stroke:black;fill:rgb(160,1,235);fill-opacity:0.1;" /><rect id="2" x="127.142" y="525.905" width="338.149" height="37.787"
  style="stroke:black;fill:rgb(84,251,82);fill-opacity:0.1;" /><rect id="3" x="49.189" y="250.945" width="494.058" height="17.786"
  style="stroke:black;fill:rgb(219,218,77);fill-opacity:0.1;" /><rect id="4" x="126.14" y="292.46" width="340.57" height="224.406"
  style="stroke:black;fill:rgb(155,48,30);fill-opacity:0.1;" /><rect id="5" x="47.84" y="83.9" width="162.289" height="160.909"
  style="stroke:black;fill:rgb(126,247,118);fill-opacity:0.1;" /><rect id="6" x="215" y="82.7" width="162.484" height="162.004"
  style="stroke:black;fill:rgb(256,213,164);fill-opacity:0.1;" /><rect id="7" x="382.14" y="83.9001" width="162.602" height="160.802"
  style="stroke:black;fill:rgb(9,133,71);fill-opacity:0.1;" /><circle cx="55.687" cy="61.6659" r="5" /><line x1="55.687" y1="61.6659" x2="513.9448" y2="61.6659" stroke="black" /><circle cx="513.9448" cy="61.6659" r="5" /><circle cx="55.687" cy="61.6659" r="5" /><line x1="55.687" y1="61.6659" x2="128.9845" y2="164.3545" stroke="black" /><circle cx="128.9845" cy="164.3545" r="5" /><circle cx="513.9448" cy="61.6659" r="5" /><line x1="513.9448" y1="61.6659" x2="513.9448" y2="61.6659" stroke="black" /><circle cx="513.9448" cy="61.6659" r="5" /><circle cx="513.9448" cy="61.6659" r="5" /><line x1="513.9448" y1="61.6659" x2="463.441" y2="164.3011" stroke="black" /><circle cx="463.441" cy="164.3011" r="5" /><circle cx="296.2165" cy="544.7985" r="5" /><line x1="296.2165" y1="544.7985" x2="296.2165" y2="544.7985" stroke="black" /><circle cx="296.2165" cy="544.7985" r="5" /><circle cx="296.2165" cy="544.7985" r="5" /><line x1="296.2165" y1="544.7985" x2="296.425" y2="404.663" stroke="black" /><circle cx="296.425" cy="404.663" r="5" /><circle cx="296.218" cy="259.838" r="5" /><line x1="296.218" y1="259.838" x2="296.218" y2="259.838" stroke="black" /><circle cx="296.218" cy="259.838" r="5" /><circle cx="296.218" cy="259.838" r="5" /><line x1="296.218" y1="259.838" x2="296.425" y2="404.663" stroke="black" /><circle cx="296.425" cy="404.663" r="5" /><circle cx="296.218" cy="259.838" r="5" /><line x1="296.218" y1="259.838" x2="296.242" y2="163.702" stroke="black" /><circle cx="296.242" cy="163.702" r="5" /><circle cx="296.425" cy="404.663" r="5" /><line x1="296.425" y1="404.663" x2="296.2165" y2="544.7985" stroke="black" /><circle cx="296.2165" cy="544.7985" r="5" /><circle cx="296.425" cy="404.663" r="5" /><line x1="296.425" y1="404.663" x2="296.218" y2="259.838" stroke="black" /><circle cx="296.218" cy="259.838" r="5" /><circle cx="296.425" cy="404.663" r="5" /><line x1="296.425" y1="404.663" x2="296.425" y2="404.663" stroke="black" /><circle cx="296.425" cy="404.663" r="5" /><circle cx="128.9845" cy="164.3545" r="5" /><line x1="128.9845" y1="164.3545" x2="128.9845" y2="164.3545" stroke="black" /><circle cx="128.9845" cy="164.3545" r="5" /><circle cx="128.9845" cy="164.3545" r="5" /><line x1="128.9845" y1="164.3545" x2="296.242" y2="163.702" stroke="black" /><circle cx="296.242" cy="163.702" r="5" /><circle cx="296.242" cy="163.702" r="5" /><line x1="296.242" y1="163.702" x2="296.218" y2="259.838" stroke="black" /><circle cx="296.218" cy="259.838" r="5" /><circle cx="296.242" cy="163.702" r="5" /><line x1="296.242" y1="163.702" x2="128.9845" y2="164.3545" stroke="black" /><circle cx="128.9845" cy="164.3545" r="5" /><circle cx="296.242" cy="163.702" r="5" /><line x1="296.242" y1="163.702" x2="296.242" y2="163.702" stroke="black" /><circle cx="296.242" cy="163.702" r="5" /><circle cx="296.242" cy="163.702" r="5" /><line x1="296.242" y1="163.702" x2="463.441" y2="164.3011" stroke="black" /><circle cx="463.441" cy="164.3011" r="5" /></g></svg>