<?xml version="1.0" ?>
	<svg xmlns:xlink="http://www.w3.org/1999/xlink" 
			xmlns="http://www.w3.org/2000/svg"
			width="1000px" 
			height="1000px" ><g><rect id="page" x="0" y="0" width="595.276" height="802"
  style="stroke:black;fill:rgb(140,156,18);fill-opacity:0.1;" /><rect id="text" x="62.35" y="30.942" width="487.67" height="720.062"
  style="stroke:black;fill:rgb(133,214,104);fill-opacity:0.1;" /><rect id="0" x="330.109" y="30.942" width="182.955" height="11.826"
  style="stroke:black;fill:rgb(29,162,209);fill-opacity:0.1;" /><rect id="1" x="536.446" y="31.086" width="13.5" height="11.826"
  style="stroke:black;fill:rgb(236,39,231);fill-opacity:0.1;" /><rect id="2" x="353.378" y="551.042" width="196.548" height="51.97"
  style="stroke:black;fill:rgb(147,235,17);fill-opacity:0.1;" /><rect id="3" x="62.35" y="627.674" width="235.3" height="35.33"
  style="stroke:black;fill:rgb(57,179,112);fill-opacity:0.1;" /><rect id="4" x="62.35" y="671.674" width="235.33" height="79.33"
  style="stroke:black;fill:rgb(155,174,45);fill-opacity:0.1;" /><rect id="5" x="314.63" y="627.864" width="235.39" height="123.14"
  style="stroke:black;fill:rgb(90,71,234);fill-opacity:0.1;" /><rect id="6" x="62.3578" y="56.7" width="487.56" height="562.5"
  style="stroke:black;fill:rgb(242,117,183);fill-opacity:0.1;" /><circle cx="421.5865" cy="36.855" r="5" /><line x1="421.5865" y1="36.855" x2="543.196" y2="36.999" stroke="black" /><circle cx="543.196" cy="36.999" r="5" /><circle cx="421.5865" cy="36.855" r="5" /><line x1="421.5865" y1="36.855" x2="306.1378" y2="337.95" stroke="black" /><circle cx="306.1378" cy="337.95" r="5" /><circle cx="543.196" cy="36.999" r="5" /><line x1="543.196" y1="36.999" x2="543.196" y2="36.999" stroke="black" /><circle cx="543.196" cy="36.999" r="5" /><circle cx="543.196" cy="36.999" r="5" /><line x1="543.196" y1="36.999" x2="306.1378" y2="337.95" stroke="black" /><circle cx="306.1378" cy="337.95" r="5" /><circle cx="451.652" cy="577.027" r="5" /><line x1="451.652" y1="577.027" x2="306.1378" y2="337.95" stroke="black" /><circle cx="306.1378" cy="337.95" r="5" /><circle cx="180" cy="645.339" r="5" /><line x1="180" y1="645.339" x2="180" y2="645.339" stroke="black" /><circle cx="180" cy="645.339" r="5" /><circle cx="180" cy="645.339" r="5" /><line x1="180" y1="645.339" x2="180.015" y2="711.339" stroke="black" /><circle cx="180.015" cy="711.339" r="5" /><circle cx="180" cy="645.339" r="5" /><line x1="180" y1="645.339" x2="432.325" y2="689.434" stroke="black" /><circle cx="432.325" cy="689.434" r="5" /><circle cx="180" cy="645.339" r="5" /><line x1="180" y1="645.339" x2="306.1378" y2="337.95" stroke="black" /><circle cx="306.1378" cy="337.95" r="5" /><circle cx="180.015" cy="711.339" r="5" /><line x1="180.015" y1="711.339" x2="180" y2="645.339" stroke="black" /><circle cx="180" cy="645.339" r="5" /><circle cx="180.015" cy="711.339" r="5" /><line x1="180.015" y1="711.339" x2="180.015" y2="711.339" stroke="black" /><circle cx="180.015" cy="711.339" r="5" /><circle cx="180.015" cy="711.339" r="5" /><line x1="180.015" y1="711.339" x2="432.325" y2="689.434" stroke="black" /><circle cx="432.325" cy="689.434" r="5" /><circle cx="432.325" cy="689.434" r="5" /><line x1="432.325" y1="689.434" x2="180" y2="645.339" stroke="black" /><circle cx="180" cy="645.339" r="5" /><circle cx="432.325" cy="689.434" r="5" /><line x1="432.325" y1="689.434" x2="180.015" y2="711.339" stroke="black" /><circle cx="180.015" cy="711.339" r="5" /><circle cx="432.325" cy="689.434" r="5" /><line x1="432.325" y1="689.434" x2="432.325" y2="689.434" stroke="black" /><circle cx="432.325" cy="689.434" r="5" /></g></svg>