<?xml version="1.0" ?>
	<svg xmlns:xlink="http://www.w3.org/1999/xlink" 
			xmlns="http://www.w3.org/2000/svg"
			width="1000px" 
			height="1000px" ><g><rect id="page" x="0" y="0" width="498.898" height="708.661"
  style="stroke:black;fill:rgb(60,14,180);fill-opacity:0.1;" /><rect id="text" x="46.7717" y="40.8326" width="405.3603" height="627.4014"
  style="stroke:black;fill:rgb(82,66,150);fill-opacity:0.1;" /><rect id="0" x="46.7717" y="40.8326" width="273.432" height="12.824"
  style="stroke:black;fill:rgb(189,129,149);fill-opacity:0.1;" /><rect id="1" x="438.42" y="40.9606" width="13.344" height="12.824"
  style="stroke:black;fill:rgb(153,192,39);fill-opacity:0.1;" /><rect id="2" x="46.7717" y="382.844" width="195.61" height="285.39"
  style="stroke:black;fill:rgb(106,38,155);fill-opacity:0.1;" /><rect id="3" x="256.532" y="382.734" width="195.6" height="102.46"
  style="stroke:black;fill:rgb(254,126,199);fill-opacity:0.1;" /><rect id="4" x="256.532" y="505.964" width="144.5" height="16.4"
  style="stroke:black;fill:rgb(207,255,58);fill-opacity:0.1;" /><rect id="5" x="256.532" y="529.054" width="195.6" height="139.09"
  style="stroke:black;fill:rgb(118,190,224);fill-opacity:0.1;" /><rect id="6" x="46.7717" y="308.302" width="123.592" height="63.12"
  style="stroke:black;fill:rgb(220,139,179);fill-opacity:0.1;" /><rect id="7" x="183.566" y="66.6137" width="268.56" height="300.96"
  style="stroke:black;fill:rgb(31,44,68);fill-opacity:0.1;" /><circle cx="183.4877" cy="47.2446" r="5" /><line x1="183.4877" y1="47.2446" x2="445.092" y2="47.3726" stroke="black" /><circle cx="445.092" cy="47.3726" r="5" /><circle cx="183.4877" cy="47.2446" r="5" /><line x1="183.4877" y1="47.2446" x2="108.5677" y2="339.862" stroke="black" /><circle cx="108.5677" cy="339.862" r="5" /><circle cx="183.4877" cy="47.2446" r="5" /><line x1="183.4877" y1="47.2446" x2="317.846" y2="217.0937" stroke="black" /><circle cx="317.846" cy="217.0937" r="5" /><circle cx="445.092" cy="47.3726" r="5" /><line x1="445.092" y1="47.3726" x2="445.092" y2="47.3726" stroke="black" /><circle cx="445.092" cy="47.3726" r="5" /><circle cx="445.092" cy="47.3726" r="5" /><line x1="445.092" y1="47.3726" x2="317.846" y2="217.0937" stroke="black" /><circle cx="317.846" cy="217.0937" r="5" /><circle cx="144.5767" cy="525.539" r="5" /><line x1="144.5767" y1="525.539" x2="144.5767" y2="525.539" stroke="black" /><circle cx="144.5767" cy="525.539" r="5" /><circle cx="144.5767" cy="525.539" r="5" /><line x1="144.5767" y1="525.539" x2="354.332" y2="433.964" stroke="black" /><circle cx="354.332" cy="433.964" r="5" /><circle cx="144.5767" cy="525.539" r="5" /><line x1="144.5767" y1="525.539" x2="328.782" y2="514.164" stroke="black" /><circle cx="328.782" cy="514.164" r="5" /><circle cx="144.5767" cy="525.539" r="5" /><line x1="144.5767" y1="525.539" x2="354.332" y2="598.599" stroke="black" /><circle cx="354.332" cy="598.599" r="5" /><circle cx="144.5767" cy="525.539" r="5" /><line x1="144.5767" y1="525.539" x2="108.5677" y2="339.862" stroke="black" /><circle cx="108.5677" cy="339.862" r="5" /><circle cx="144.5767" cy="525.539" r="5" /><line x1="144.5767" y1="525.539" x2="317.846" y2="217.0937" stroke="black" /><circle cx="317.846" cy="217.0937" r="5" /><circle cx="354.332" cy="433.964" r="5" /><line x1="354.332" y1="433.964" x2="144.5767" y2="525.539" stroke="black" /><circle cx="144.5767" cy="525.539" r="5" /><circle cx="354.332" cy="433.964" r="5" /><line x1="354.332" y1="433.964" x2="354.332" y2="433.964" stroke="black" /><circle cx="354.332" cy="433.964" r="5" /><circle cx="354.332" cy="433.964" r="5" /><line x1="354.332" y1="433.964" x2="328.782" y2="514.164" stroke="black" /><circle cx="328.782" cy="514.164" r="5" /><circle cx="354.332" cy="433.964" r="5" /><line x1="354.332" y1="433.964" x2="317.846" y2="217.0937" stroke="black" /><circle cx="317.846" cy="217.0937" r="5" /><circle cx="328.782" cy="514.164" r="5" /><line x1="328.782" y1="514.164" x2="144.5767" y2="525.539" stroke="black" /><circle cx="144.5767" cy="525.539" r="5" /><circle cx="328.782" cy="514.164" r="5" /><line x1="328.782" y1="514.164" x2="354.332" y2="433.964" stroke="black" /><circle cx="354.332" cy="433.964" r="5" /><circle cx="328.782" cy="514.164" r="5" /><line x1="328.782" y1="514.164" x2="328.782" y2="514.164" stroke="black" /><circle cx="328.782" cy="514.164" r="5" /><circle cx="328.782" cy="514.164" r="5" /><line x1="328.782" y1="514.164" x2="354.332" y2="598.599" stroke="black" /><circle cx="354.332" cy="598.599" r="5" /><circle cx="354.332" cy="598.599" r="5" /><line x1="354.332" y1="598.599" x2="144.5767" y2="525.539" stroke="black" /><circle cx="144.5767" cy="525.539" r="5" /><circle cx="354.332" cy="598.599" r="5" /><line x1="354.332" y1="598.599" x2="328.782" y2="514.164" stroke="black" /><circle cx="328.782" cy="514.164" r="5" /><circle cx="354.332" cy="598.599" r="5" /><line x1="354.332" y1="598.599" x2="354.332" y2="598.599" stroke="black" /><circle cx="354.332" cy="598.599" r="5" /><circle cx="108.5677" cy="339.862" r="5" /><line x1="108.5677" y1="339.862" x2="144.5767" y2="525.539" stroke="black" /><circle cx="144.5767" cy="525.539" r="5" /><circle cx="108.5677" cy="339.862" r="5" /><line x1="108.5677" y1="339.862" x2="108.5677" y2="339.862" stroke="black" /><circle cx="108.5677" cy="339.862" r="5" /><circle cx="108.5677" cy="339.862" r="5" /><line x1="108.5677" y1="339.862" x2="317.846" y2="217.0937" stroke="black" /><circle cx="317.846" cy="217.0937" r="5" /></g></svg>